HIERARCHY
ROOT Hips
{
  OFFSET 0.000000 0.000000 0.000000
  CHANNELS 6 Xposition Yposition Zposition Zrotation Xrotation Yrotation
  JOINT LeftUpLeg
  {
    OFFSET 0.063268 -0.101028 -0.015581
    CHANNELS 3 Zrotation Xrotation Yrotation
    JOINT LeftLeg
    {
      OFFSET 0.052143 -0.354469 0.025141
      CHANNELS 3 Zrotation Xrotation Yrotation
      JOINT LeftFoot
      {
        OFFSET -0.036199 -0.385150 -0.099843
        CHANNELS 3 Zrotation Xrotation Yrotation
        JOINT LeftToeBase
        {
          OFFSET 0.055461 -0.064396 0.123437
          CHANNELS 3 Zrotation Xrotation Yrotation
          End Site
          {
            OFFSET 0 0 0.1
          }
        }
      }
    }
  }
  JOINT RightUpLeg
  {
    OFFSET -0.071119 -0.121848 -0.012937
    CHANNELS 3 Zrotation Xrotation Yrotation
    JOINT RightLeg
    {
      OFFSET -0.032574 -0.330349 0.043307
      CHANNELS 3 Zrotation Xrotation Yrotation
      JOINT RightFoot
      {
        OFFSET 0.010762 -0.396915 -0.118241
        CHANNELS 3 Zrotation Xrotation Yrotation
        JOINT RightToeBase
        {
          OFFSET -0.020113 -0.063041 0.115190
          CHANNELS 3 Zrotation Xrotation Yrotation
          End Site
          {
            OFFSET 0 0 0.1
          }
        }
      }
    }
  }
  JOINT Spine
  {
    OFFSET 0.002679 0.078445 -0.028614
    CHANNELS 3 Zrotation Xrotation Yrotation
    JOINT Spine1
    {
      OFFSET 0.019370 0.137894 0.045821
      CHANNELS 3 Zrotation Xrotation Yrotation
      JOINT Spine2
      {
        OFFSET 0.008958 0.075469 0.018704
        CHANNELS 3 Zrotation Xrotation Yrotation
        JOINT Neck
        {
          OFFSET -0.000514 0.180994 0.020421
          CHANNELS 3 Zrotation Xrotation Yrotation
          JOINT RightArm
          {
            OFFSET 0.015213 0.043688 0.072224
            CHANNELS 3 Zrotation Xrotation Yrotation
            End Site
            {
              OFFSET 0 0 0.1
            }
          }
        }
        JOINT RightShoulder
        {
          OFFSET 0.066868 0.095366 0.003968
          CHANNELS 3 Zrotation Xrotation Yrotation
          JOINT LeftArm
          {
            OFFSET 0.113811 -0.001518 -0.023020
            CHANNELS 3 Zrotation Xrotation Yrotation
            JOINT LeftForeArm
            {
              OFFSET 0.069809 -0.214795 0.004378
              CHANNELS 3 Zrotation Xrotation Yrotation
              JOINT LeftHand
              {
                OFFSET -0.042008 -0.150694 0.119247
                CHANNELS 3 Zrotation Xrotation Yrotation
                End Site
                {
                  OFFSET 0 0 0.1
                }
              }
            }
          }
        }
        JOINT LeftShoulder
        {
          OFFSET -0.076323 0.109487 0.017392
          CHANNELS 3 Zrotation Xrotation Yrotation
          JOINT RightForeArm
          {
            OFFSET -0.108005 0.002177 0.003416
            CHANNELS 3 Zrotation Xrotation Yrotation
            JOINT RightHand
            {
              OFFSET -0.108376 -0.214804 -0.021174
              CHANNELS 3 Zrotation Xrotation Yrotation
              JOINT LeftHandEnd
              {
                OFFSET 0.079434 -0.156967 0.205632
                CHANNELS 3 Zrotation Xrotation Yrotation
                End Site
                {
                  OFFSET 0 0 0.1
                }
              }
            }
          }
        }
      }
    }
  }
}
MOTION
Frames: 11
Frame Time: 0.05000000
0.000000 0.960513 0.000000 -0.000000 0.000000 0.000000 -57.407506 -4.092242 7.466067 65.257457 -9.118348 -6.560828 -13.926698 18.439698 1.385396 -0.026075 10.977511 23.455812 59.454162 -2.997103 -5.246243 -64.423969 -10.901878 4.643119 7.375185 24.002343 -0.843485 0.809255 11.752417 -9.395399 -1.955855 -20.029444 -0.345421 -7.566764 38.067371 4.344339 1.096039 -4.410015 -0.081115 6.839351 -7.387037 0.834594 3.354508 -37.048313 12.341994 54.928383 -1.014370 -1.951426 34.060686 13.368952 -10.213727 -71.147469 -15.448936 -7.042423 -33.231485 -36.292814 -4.708405 -54.617772 -3.846201 7.441364 -36.160684 5.693496 -5.562540 64.444684 7.478538 0.357184 57.925516 -53.274939 18.123236
-0.009175 0.951809 -0.005790 -0.000000 0.000000 -12.076515 -56.275176 -14.322696 14.366000 65.370505 -9.581102 -6.713200 -14.560069 18.766347 1.529941 0.359347 10.244793 24.069285 59.313628 7.546030 1.136604 -64.464025 -11.553301 4.383583 7.166743 24.285646 -0.847719 0.884803 11.792521 -9.161665 2.077611 -20.018850 12.443245 -6.785874 38.397142 4.103024 2.235481 -6.268462 0.079051 5.251064 -6.221341 0.566928 3.652143 -37.013111 12.890377 53.495452 8.872732 5.426275 33.647193 13.190390 -10.115878 -70.177997 -14.126442 -7.130139 -32.821497 -34.677049 -4.871999 -53.216660 -13.665109 14.826774 -36.697067 5.397773 -6.094175 64.354945 7.544725 0.012768 56.552170 -52.830769 16.795658
-0.003077 0.952297 0.007580 -0.000000 0.000000 -12.268060 -56.033935 -14.797763 15.162037 65.095593 -9.971064 -7.321018 -14.192503 18.862768 1.466580 0.051122 9.974960 24.266481 59.601240 7.736601 1.198690 -64.743231 -11.520883 4.368417 7.092830 24.601523 -0.834365 0.853515 11.331309 -8.869232 2.760004 -20.746462 12.773378 -7.552014 38.673957 4.412662 2.575982 -5.965009 0.142440 5.150701 -6.245272 0.547123 3.824903 -36.952710 13.507043 53.601167 8.881019 5.211368 33.065726 14.960222 -11.253339 -74.185326 -14.111785 -9.296693 -21.981994 -26.668680 -2.404984 -53.592423 -13.859745 14.794093 -33.807868 7.048953 -4.451581 67.318065 11.195126 1.836673 45.516665 -43.748095 13.525361
0.003860 0.948318 0.014984 -0.000000 0.000000 -12.467462 -55.594422 -14.937208 15.461891 64.378217 -10.593635 -7.429279 -14.335539 19.438255 1.639830 0.733365 8.853622 23.724004 59.902626 7.908418 1.213694 -65.653511 -11.424795 4.323807 7.161165 24.716240 -0.719005 1.346511 10.392829 -9.116280 3.519102 -21.861336 13.147294 -9.260365 38.614189 5.222809 3.114011 -4.796884 0.226660 5.825899 -7.170829 0.629402 4.185738 -35.887078 15.575655 53.754710 9.221552 5.614811 34.050052 20.082383 -16.993139 -80.538690 -13.751094 -15.715790 -2.260686 -3.807936 -0.002811 -54.205699 -14.046800 14.602299 -30.320732 10.704241 -0.935259 72.343980 12.749386 4.570389 23.665032 -25.611180 5.795060
-0.012644 0.954170 0.018808 -0.000000 0.000000 -12.674708 -56.164373 -15.311058 15.605348 65.404497 -9.800270 -7.550921 -14.389611 18.448088 1.427903 0.001434 10.221767 24.916576 59.509519 8.357549 1.892154 -64.698388 -11.143739 3.922592 6.808989 24.472176 -0.766542 0.864953 11.609270 -8.118265 3.169892 -20.604190 13.251037 -8.109738 38.631779 4.597687 2.602246 -6.058493 0.133738 5.159755 -6.250108 0.536305 4.134372 -36.771692 14.026652 53.443444 9.537933 6.144305 33.482519 15.350865 -12.694314 -73.518608 -14.863100 -9.915469 -21.556683 -27.135057 -2.272735 -53.516522 -14.461412 15.572744 -34.319443 6.927506 -5.337384 66.515297 10.863709 1.369377 46.798120 -44.524736 13.320796
-0.003901 0.948483 0.020429 -0.000000 0.000000 -12.889767 -55.603357 -15.779036 16.560310 65.054274 -11.001762 -8.154178 -14.967199 19.640342 1.652210 0.163032 9.532715 25.391829 59.863275 8.583956 1.963340 -65.146106 -11.723874 3.855276 7.055998 25.481799 -0.859706 0.837046 10.941554 -8.464106 3.338070 -21.189449 13.514322 -7.663647 38.046216 4.378894 2.536240 -4.388269 0.180904 5.319519 -7.408409 0.596049 4.385970 -36.866546 15.741880 53.257532 9.821309 6.557587 30.705877 17.648286 -14.472378 -79.052546 -11.833898 -13.756005 -7.738163 -7.249791 -0.626620 -53.831577 -14.312208 14.891965 -30.307877 7.336490 -4.046967 72.116567 15.164961 2.115351 28.418578 -29.184227 7.552020
0.011470 0.953865 0.029668 -0.000000 0.000000 -13.112590 -55.835410 -15.899017 16.415638 65.232906 -10.431323 -7.987073 -14.847270 19.034789 1.565632 0.195443 10.051911 25.188756 59.648440 8.919245 2.382398 -65.159886 -10.980225 3.604390 6.865669 24.889782 -0.739048 1.003594 11.413439 -7.941730 3.650359 -20.887270 13.785649 -8.700547 37.779443 4.772412 2.369375 -4.047110 0.144481 5.863059 -7.715063 0.658240 4.578479 -36.620385 15.746707 53.422699 10.318073 7.231616 32.512975 18.712906 -16.873247 -78.091402 -13.322704 -14.845165 -7.570101 -7.315442 -0.516616 -53.876838 -14.802116 15.564595 -31.598053 7.925254 -4.234897 70.566986 12.904963 2.144611 31.177186 -31.941961 7.606285
0.015070 0.959623 0.025301 -0.000000 0.000000 -13.343114 -56.170528 -16.215033 16.551057 65.759420 -9.919755 -8.069328 -15.011774 17.870505 1.444157 -0.229848 11.449434 26.795301 58.910354 9.270802 2.997174 -63.689679 -10.624236 3.364517 6.079335 24.697630 -0.688184 0.636151 11.776901 -6.633215 3.586847 -19.331685 13.954218 -8.617788 37.627883 4.548450 1.049257 -4.679328 -0.114223 6.817834 -6.689352 0.800179 4.359978 -37.743209 14.737957 54.094081 10.579136 7.213229 32.660411 11.579456 -10.239282 -68.060894 -17.115747 -5.781686 -39.931239 -43.140789 -7.076956 -53.000926 -15.365959 16.936664 -36.759108 2.105131 -11.471436 62.375383 10.958400 -2.483775 66.474929 -53.056514 20.059721
0.021420 0.948501 0.030235 -0.000000 0.000000 -13.581245 -55.808388 -16.283175 16.653787 65.418787 -9.967905 -7.975834 -15.173091 17.805444 1.490348 0.432220 9.821878 26.454442 59.202779 9.587623 3.213270 -64.542958 -10.970967 3.137752 6.201430 24.514763 -0.628994 0.993641 10.868657 -6.864749 4.288609 -20.478610 14.356276 -9.692535 38.695214 5.160295 2.608870 -6.443204 0.084916 5.782757 -6.059625 0.585511 4.511486 -36.092707 15.750636 53.579664 10.804075 7.634475 34.314836 15.470031 -14.548179 -73.235774 -18.482712 -10.266531 -23.903966 -33.344383 -2.602019 -53.479183 -15.659395 16.951708 -34.177404 5.637494 -7.893175 65.063251 11.044830 -0.084780 53.234289 -46.254280 15.283500
0.024309 0.946844 0.039549 -0.000000 0.000000 -13.826879 -55.677966 -16.647942 17.143633 65.209181 -10.557534 -8.267378 -15.444578 18.312025 1.633029 0.705322 9.728884 26.514063 59.217068 9.893865 3.493705 -64.713144 -10.827275 2.973209 5.987091 24.678980 -0.545188 1.272151 10.996659 -6.741132 4.351754 -20.801000 14.625986 -10.015243 38.427810 5.359938 3.105499 -5.827173 0.185529 5.617969 -6.289154 0.568798 4.952734 -36.254325 16.947567 53.147122 11.146044 8.250209 34.294505 17.721672 -17.209425 -74.637300 -16.808406 -13.146710 -16.422267 -21.337548 -1.378093 -53.393802 -15.928524 17.267028 -33.660157 6.798501 -6.993957 67.415232 11.525406 0.505979 43.466756 -40.955823 11.234368
0.022269 0.950155 0.046529 -0.000000 0.000000 -14.079889 -55.877436 -17.113573 17.598877 65.341340 -10.722294 -8.611977 -15.328807 18.039228 1.601732 0.605741 9.814025 27.148380 59.296286 10.141755 3.641969 -64.402913 -11.005328 2.974946 5.326467 24.697655 -0.451635 1.244038 11.546533 -5.589318 4.376996 -20.257756 14.862196 -10.113140 38.395712 5.345776 3.924302 -7.392583 0.299749 4.496155 -4.824456 0.399868 5.277530 -36.874280 16.757263 52.840492 11.139741 8.129637 34.723261 15.912528 -15.001501 -71.943082 -17.281073 -10.484195 -24.119733 -32.937464 -2.847206 -52.943862 -16.412900 18.223200 -35.653402 6.064741 -8.726797 65.914740 12.449118 -0.225932 52.143035 -45.402465 14.624205
